<svg xmlns="http://www.w3.org/2000/svg" xmlns:xlink="http://www.w3.org/1999/xlink" width="500" zoomAndPan="magnify" viewBox="0 0 375 374.999991" height="500" preserveAspectRatio="xMidYMid meet" version="1.0"><defs><clipPath id="a3aaed6dd1"><path d="M 163 71.773438 L 239 71.773438 L 239 202 L 163 202 Z M 163 71.773438 " clip-rule="nonzero"/></clipPath><clipPath id="a37e0d696e"><path d="M 186 71.773438 L 239 71.773438 L 239 159 L 186 159 Z M 186 71.773438 " clip-rule="nonzero"/></clipPath></defs><rect x="-37.5" width="450" fill="#ffffff" y="-37.499999" height="449.999989" fill-opacity="1"/><rect x="-37.5" width="450" fill="#ffffff" y="-37.499999" height="449.999989" fill-opacity="1"/><path fill="#0d62ad" d="M 139.238281 135.082031 C 133.476562 145.261719 131.675781 156.253906 134.648438 168.222656 C 141.640625 196.375 172.921875 221.773438 201.140625 207.773438 C 216.707031 200.046875 222.867188 181.121094 212.167969 166.46875 C 206.300781 158.433594 196.917969 151.675781 186.65625 145.238281 C 173.449219 137.199219 154.222656 124.367188 156.207031 106.671875 C 148.574219 114.964844 143.386719 124.511719 149.425781 135.148438 C 154.0625 143.304688 162.769531 150.78125 173.777344 157.878906 C 178.492188 161.359375 183.070312 164.976562 186.398438 169.796875 C 195.773438 183.367188 185.015625 192.550781 171.253906 190.988281 C 157.617188 189.441406 150.964844 182.78125 147.992188 173.441406 C 153.296875 177.730469 158.78125 181.703125 165.253906 183.398438 C 175.917969 186.191406 178.75 179.582031 175.683594 172.296875 C 174.066406 168.453125 171.078125 164.816406 167.457031 161.914062 C 156.21875 152.882812 149.285156 146.953125 139.238281 135.082031 " fill-opacity="1" fill-rule="evenodd"/><path fill="#034e8f" d="M 207.277344 203.765625 C 218.136719 194.664062 221.324219 179.003906 212.171875 166.46875 C 206.304688 158.433594 196.921875 151.675781 186.660156 145.238281 C 173.453125 137.199219 154.226562 124.367188 156.210938 106.671875 C 151.695312 119.671875 153.875 128.492188 163.515625 137.761719 C 175.421875 149.207031 191.316406 157.554688 202.042969 169.898438 C 209.75 178.769531 213.804688 189.429688 207.277344 203.765625 " fill-opacity="1" fill-rule="evenodd"/><path fill="#034e8f" d="M 176.828125 178.0625 C 176.9375 176.316406 176.542969 174.332031 175.679688 172.289062 C 174.0625 168.445312 171.070312 164.808594 167.453125 161.90625 C 156.210938 152.878906 149.28125 146.945312 139.234375 135.082031 C 149.253906 159.996094 168.976562 160.324219 176.828125 178.0625 " fill-opacity="1" fill-rule="evenodd"/><g clip-path="url(#a3aaed6dd1)"><path fill="#0098da" d="M 186.835938 71.773438 C 174.007812 81.625 158.089844 95.164062 165.59375 111.121094 C 171.804688 124.324219 191.621094 136.609375 202.898438 145.742188 C 223.171875 162.152344 238.628906 175.289062 218.207031 201.011719 C 235.003906 185.089844 241.859375 166.71875 225.691406 147.585938 C 221.222656 142.292969 215.902344 137.355469 209.800781 132.734375 C 198.285156 124.007812 181.636719 114.324219 181.527344 98.003906 C 191.390625 113.1875 200.085938 117.105469 213.453125 126.824219 C 225.863281 135.84375 234.042969 146.277344 238.207031 158.046875 C 237.113281 144.566406 231.964844 132.429688 223.75 121.324219 C 217.742188 113.195312 210.128906 105.660156 202.953125 97.875 C 194.890625 89.113281 190.472656 83.632812 186.835938 71.773438 " fill-opacity="1" fill-rule="evenodd"/></g><g clip-path="url(#a37e0d696e)"><path fill="#007fb5" d="M 235.996094 152.710938 C 236.828125 154.460938 237.5625 156.234375 238.207031 158.046875 C 237.113281 144.566406 231.964844 132.429688 223.75 121.324219 C 217.742188 113.195312 210.128906 105.660156 202.953125 97.875 C 194.886719 89.121094 190.472656 83.636719 186.835938 71.78125 C 186.898438 80.304688 188.796875 87.777344 192.753906 95.273438 C 197.527344 104.3125 203.664062 108.859375 211.78125 116.457031 C 215.691406 120.113281 219.34375 124.011719 222.707031 128.191406 C 228.160156 134.957031 234.394531 144.234375 235.996094 152.710938 Z M 235.996094 152.710938 " fill-opacity="1" fill-rule="evenodd"/></g><path fill="#007fb5" d="M 166.425781 92.660156 C 163.394531 98.339844 162.488281 104.523438 165.589844 111.121094 C 171.800781 124.324219 191.613281 136.609375 202.890625 145.742188 C 208.6875 150.429688 214.085938 154.855469 218.367188 159.378906 C 205.9375 142.15625 185.507812 132.335938 173.988281 116 C 169.089844 109.050781 166.125 101.28125 166.425781 92.660156 " fill-opacity="1" fill-rule="evenodd"/></svg>